<svg width="512" height="512" viewBox="0 0 512 512" xmlns="http://www.w3.org/2000/svg">
  <defs>
    <linearGradient id="ringGrad" x1="0%" y1="0%" x2="100%" y2="100%">
      <stop offset="0%" stop-color="#00AFFF" />
      <stop offset="100%" stop-color="#0066FF" />
    </linearGradient>
    <filter id="glow" x="-30%" y="-30%" width="160%" height="160%">
      <feGaussianBlur stdDeviation="8" result="blur" />
      <feMerge>
        <feMergeNode in="blur" />
        <feMergeNode in="SourceGraphic" />
      </feMerge>
    </filter>
  </defs>

  <rect width="512" height="512" fill="#000000" rx="110" />

  <circle cx="256" cy="256" r="168" fill="none" stroke="#00AFFF" stroke-width="24" opacity="0.6" filter="url(#glow)" />
  <circle cx="256" cy="256" r="168" fill="none" stroke="url(#ringGrad)" stroke-width="20" />
  <circle cx="256" cy="256" r="158" fill="none" stroke="#FFFFFF" stroke-width="3.5" opacity="0.75" />

  <g fill="#FFFFFF" transform="translate(256, 256)">
    <!-- A -->
    <path d="M -88,24 L -63,-30 L -38,24 L -50,24 L -63,-5 L -76,24 Z" />
    <!-- I -->
    <rect x="-25" y="-30" width="13" height="54" rx="2.5" />
    <!-- R -->
    <path d="M 7,-30 L 37,-30 C 51,-30 60,-22 60,-13 C 60,-3 51,3 37,3 L 20,3 L 20,24 L 7,24 Z M 20,-18 L 35,-18 C 43,-18 45,-16 45,-13 C 45,-9 43,-7 35,-7 L 20,-7 Z M 31,1 L 55,24 L 40,24 L 19,3 Z" />
    <!-- A -->
    <path d="M 70,24 L 95,-30 L 120,24 L 108,24 L 95,-5 L 82,24 Z" />
  </g>
</svg>